<svg width="156" height="156" xmlns="http://www.w3.org/2000/svg" xmlns:xlink="http://www.w3.org/1999/xlink" xml:space="preserve" overflow="hidden"><g transform="translate(-1023 -282)"><path d="M1172.5 360C1172.5 356.425 1169.57 353.5 1166 353.5 1164.7 353.5 1163.56 353.825 1162.59 354.475L1134.8 370.4C1135.12 372.188 1135.12 373.975 1134.8 375.925 1133.5 381.938 1127.81 386 1121.64 386L1092.88 386 1092.88 379.5 1122.12 379.5C1125.7 379.5 1128.62 376.575 1128.62 373 1128.62 369.425 1125.7 366.5 1122.12 366.5 1122.12 366.5 1083.45 366.5 1083.12 366.5 1080.36 366.5 1077.76 367.312 1075.49 368.612L1029.5 390.875 1052.25 413.625C1062.81 403.062 1076.46 399 1091.25 399L1121.64 399C1123.1 399 1124.4 398.513 1125.54 397.7L1170.22 365.038C1171.53 363.737 1172.5 361.95 1172.5 360Z" fill="#FFFFFF"/><path d="M1149.91 306.7C1149.91 306.7 1129.76 304.1 1119.04 314.825 1111.24 322.625 1110.43 335.138 1110.59 341.638 1107.18 344.075 1104.25 347.65 1102.3 351.875 1101.81 351.225 1101.49 350.575 1101 349.925 1101.16 344.562 1100.35 334.325 1094.01 327.987 1085.07 319.05 1068.5 321.325 1068.5 321.325 1068.5 321.325 1066.39 337.9 1075.16 346.837 1080.85 352.525 1089.95 353.663 1095.47 353.825 1097.1 355.612 1098.24 358.212 1099.05 360.487 1099.21 360.975 1099.38 362.112 1099.38 363.575L1106.04 363.575C1106.2 360.163 1106.69 358.212 1107.99 355.45 1109.61 351.55 1112.38 348.3 1115.62 346.35 1122.29 346.513 1134.31 345.375 1141.79 337.9 1152.51 326.85 1149.91 306.7 1149.91 306.7Z" fill="#FFFFFF"/></g></svg>