<svg width="155" height="155" xmlns="http://www.w3.org/2000/svg" xmlns:xlink="http://www.w3.org/1999/xlink" xml:space="preserve" overflow="hidden"><g transform="translate(-790 -148)"><path d="M812.604 252.948 819.062 252.948 819.062 259.406 812.604 259.406 812.604 252.948ZM812.604 240.031 819.062 240.031 819.062 246.49 812.604 246.49 812.604 240.031ZM812.604 227.115 819.062 227.115 819.062 233.573 812.604 233.573 812.604 227.115ZM825.521 252.948 831.979 252.948 831.979 259.406 825.521 259.406 825.521 252.948ZM825.521 240.031 831.979 240.031 831.979 246.49 825.521 246.49 825.521 240.031ZM825.521 227.115 831.979 227.115 831.979 233.573 825.521 233.573 825.521 227.115ZM802.917 275.552 819.062 275.552 819.062 265.865 825.521 265.865 825.521 275.552 841.667 275.552 841.667 217.427 802.917 217.427 802.917 275.552Z" fill="#FFFFFF"/><path d="M857.812 252.948 864.271 252.948 864.271 259.406 857.812 259.406 857.812 252.948ZM857.812 240.031 864.271 240.031 864.271 246.49 857.812 246.49 857.812 240.031ZM870.729 252.948 877.188 252.948 877.188 259.406 870.729 259.406 870.729 252.948ZM870.729 240.031 877.188 240.031 877.188 246.49 870.729 246.49 870.729 240.031ZM848.125 275.552 864.271 275.552 864.271 265.865 870.729 265.865 870.729 275.552 886.875 275.552 886.875 230.344 848.125 230.344 848.125 275.552Z" fill="#FFFFFF"/><path d="M922.396 196.438 915.938 196.438 915.938 189.979 922.396 189.979 922.396 196.438ZM922.396 207.74 915.938 207.74 915.938 201.281 922.396 201.281 922.396 207.74ZM922.396 220.656 915.938 220.656 915.938 214.198 922.396 214.198 922.396 220.656ZM922.396 233.573 915.938 233.573 915.938 227.115 922.396 227.115 922.396 233.573ZM922.396 246.49 915.938 246.49 915.938 240.031 922.396 240.031 922.396 246.49ZM922.396 259.406 915.938 259.406 915.938 252.948 922.396 252.948 922.396 259.406ZM909.479 196.438 903.021 196.438 903.021 189.979 909.479 189.979 909.479 196.438ZM909.479 207.74 903.021 207.74 903.021 201.281 909.479 201.281 909.479 207.74ZM909.479 220.656 903.021 220.656 903.021 214.198 909.479 214.198 909.479 220.656ZM909.479 233.573 903.021 233.573 903.021 227.115 909.479 227.115 909.479 233.573ZM909.479 246.49 903.021 246.49 903.021 240.031 909.479 240.031 909.479 246.49ZM909.479 259.406 903.021 259.406 903.021 252.948 909.479 252.948 909.479 259.406ZM893.333 178.677 893.333 275.552 909.479 275.552 909.479 265.865 915.938 265.865 915.938 275.552 932.083 275.552 932.083 183.521 893.333 178.677Z" fill="#FFFFFF"/><path d="M848.125 198.052 854.583 198.052 854.583 204.51 848.125 204.51 848.125 198.052ZM848.125 185.135 854.583 185.135 854.583 191.594 848.125 191.594 848.125 185.135ZM841.667 191.594 835.208 191.594 835.208 185.135 841.667 185.135 841.667 191.594ZM841.667 204.51 835.208 204.51 835.208 198.052 841.667 198.052 841.667 204.51ZM848.125 223.885 864.271 223.885 864.271 175.448 825.521 175.448 825.521 210.969 848.125 210.969 848.125 223.885Z" fill="#FFFFFF"/></g></svg>