<svg width="156" height="156" xmlns="http://www.w3.org/2000/svg" xmlns:xlink="http://www.w3.org/1999/xlink" xml:space="preserve" overflow="hidden"><g transform="translate(-1023 -438)"><path d="M1161.12 498.775C1158.36 492.112 1150.72 489.025 1144.06 491.788 1138.54 494.062 1135.29 499.913 1136.1 505.6L1115.14 514.375C1112.86 510.475 1108.8 507.55 1104.25 506.737L1104.25 484.15C1109.78 482.688 1114 477.65 1114 471.638 1114 464.487 1108.15 458.638 1101 458.638L1101 458.638C1093.85 458.638 1088 464.487 1088 471.638 1088 477.65 1092.22 482.688 1097.75 484.15L1097.75 506.575C1093.04 507.388 1089.14 510.312 1086.86 514.213L1065.9 505.438C1066.71 499.75 1063.62 493.9 1057.94 491.625 1051.28 488.862 1043.64 491.95 1040.88 498.612 1038.11 505.275 1041.2 512.912 1047.86 515.675 1053.39 517.95 1059.72 516.162 1063.14 511.45L1084.59 520.225C1084.43 520.875 1084.43 521.688 1084.43 522.338 1084.43 525.912 1085.56 529.325 1087.68 532.088L1070.78 549.15C1065.74 546.225 1059.24 546.875 1055.01 551.1 1049.97 556.138 1049.97 564.425 1055.01 569.463 1060.05 574.5 1068.34 574.5 1073.38 569.463 1077.6 565.237 1078.25 558.737 1075.32 553.7L1092.55 536.475C1094.99 537.938 1097.75 538.75 1100.68 538.75 1100.84 538.75 1100.84 538.75 1101 538.75 1101.16 538.75 1101.16 538.75 1101.32 538.75 1104.25 538.75 1107.01 537.938 1109.45 536.475L1126.68 553.7C1123.75 558.737 1124.4 565.237 1128.62 569.625 1133.66 574.662 1141.95 574.662 1146.99 569.625 1152.03 564.588 1152.03 556.3 1146.99 551.263 1142.76 547.037 1136.26 546.388 1131.22 549.312L1114.32 532.25C1116.44 529.487 1117.57 526.237 1117.57 522.5 1117.57 521.85 1117.57 521.037 1117.41 520.388L1138.86 511.612C1142.28 516.162 1148.61 518.112 1154.14 515.838 1160.64 512.912 1163.89 505.438 1161.12 498.775Z" fill="#FFFFFF"/></g></svg>