<svg width="156" height="156" xmlns="http://www.w3.org/2000/svg" xmlns:xlink="http://www.w3.org/1999/xlink" xml:space="preserve" overflow="hidden"><g transform="translate(-1023 -102)"><path d="M1120.01 168.3 1105.55 168.3C1099.38 168.3 1094.34 173.175 1094.34 179.35L1094.34 191.375 1087.03 191.375 1087.03 181.788C1087.03 178.375 1087.19 173.987 1084.75 171.225 1083.29 169.6 1081.66 168.3 1079.88 167 1078.57 166.188 1077.28 165.212 1076.3 163.913 1075.81 163.262 1075.49 162.45 1075.16 161.637 1077.11 160.825 1079.22 160.663 1081.18 160.825 1082.15 160.825 1082.96 160.175 1082.96 159.2 1083.12 158.225 1082.47 157.413 1081.66 157.087 1079.22 156.762 1076.62 157.087 1074.19 157.9 1074.19 157.575 1074.19 157.25 1074.03 157.087 1073.86 155.625 1074.19 154.163 1074.51 152.7 1075.81 149.288 1079.06 147.825 1082.15 146.688 1082.64 146.525 1083.29 146.363 1084.1 146.2L1084.59 146.038 1084.75 146.038C1085.56 146.2 1086.21 146.363 1086.86 146.525L1087.68 146.688 1088.65 146.85C1090.28 148.8 1091.09 151.238 1090.93 153.675 1090.76 156.113 1089.62 158.387 1087.68 160.012 1087.03 160.663 1086.86 161.8 1087.51 162.613 1088.16 163.262 1089.14 163.425 1089.95 162.775 1091.09 161.8 1092.06 160.663 1092.71 159.363L1092.88 159.363C1095.64 159.038 1098.4 158.225 1100.84 156.925 1101.16 156.6 1101.49 156.275 1101.65 155.788 1101.81 155.3 1101.65 154.812 1101.32 154.488 1100.68 153.675 1099.7 153.512 1098.89 154 1097.43 154.812 1095.96 155.462 1094.18 155.625 1094.34 155.137 1094.5 154.488 1094.5 154 1094.66 151.887 1094.34 149.775 1093.53 147.988 1094.82 148.15 1096.12 148.312 1097.43 148.312 1098.56 148.312 1099.7 148.15 1100.84 147.988 1102.95 150.587 1105.71 152.375 1108.96 153.188 1113.19 155.3 1117.09 158.062 1117.09 162.613 1117.09 163.262 1117.41 164.075 1117.9 164.4 1118.55 164.725 1119.2 164.725 1119.85 164.4 1120.5 164.075 1120.82 163.262 1120.66 162.613 1120.66 159.038 1119.04 155.788 1116.28 153.675 1118.55 153.512 1120.5 152.375 1121.96 150.75 1122.61 149.938 1122.45 148.8 1121.8 148.15 1120.99 147.5 1119.85 147.663 1119.2 148.312 1118.39 149.288 1116.28 150.1 1113.19 149.938 1110.1 149.938 1107.01 148.8 1104.74 146.85 1107.34 145.712 1109.61 143.762 1111.07 141.325 1111.56 140.512 1111.24 139.375 1110.43 138.725 1109.61 138.238 1108.47 138.562 1107.99 139.375 1105.22 144.413 1099.38 145.875 1090.11 143.6 1092.22 141.812 1093.2 139.05 1092.88 136.288 1092.88 135.637 1092.55 134.988 1091.9 134.663 1091.25 134.337 1090.6 134.337 1089.95 134.825 1089.3 135.15 1089.14 135.962 1089.14 136.613 1089.3 140.837 1087.03 141.65 1083.29 142.788 1082.8 142.95 1082.15 143.113 1081.66 143.275 1080.69 141 1078.57 139.212 1076.14 138.562 1075.49 138.4 1074.84 138.562 1074.35 139.05 1073.86 139.538 1073.7 140.188 1073.86 141 1074.03 141.65 1074.51 142.137 1075.32 142.3 1076.62 142.625 1077.6 143.6 1078.25 144.738L1078.25 144.9C1075.16 146.2 1072.72 148.637 1071.59 151.725 1071.26 152.375 1071.1 153.188 1071.1 154 1070.78 153.675 1070.45 153.35 1070.29 152.863 1069.64 151.562 1069.15 149.938 1068.99 148.475 1068.82 147.825 1068.34 147.175 1067.85 147.012 1067.2 146.688 1066.55 146.85 1066.06 147.337 1065.57 147.825 1065.25 148.475 1065.57 149.125 1065.9 151.075 1066.39 152.863 1067.36 154.488 1068.34 156.113 1069.64 157.413 1071.43 158.225 1071.59 160.5 1072.4 162.775 1073.54 164.887 1072.4 166.35 1070.94 167.487 1069.31 168.462 1068.82 168.788 1068.5 169.438 1068.34 170.087 1068.34 170.737 1068.66 171.388 1069.31 171.712 1069.96 172.038 1070.61 172.038 1071.1 171.55 1072.72 170.413 1074.19 169.275 1075.49 167.812 1076.46 168.625 1077.44 169.275 1078.41 169.925 1080.04 170.9 1081.34 172.038 1082.64 173.5 1084.1 175.288 1084.1 178.7 1084.1 181.625L1084.1 191.375 1076.62 191.375C1076.62 179.35 1070.78 178.7 1070.12 178.375 1067.69 177.725 1061.35 174.312 1059.89 167.487 1059.72 167.163 1059.72 166.675 1059.72 166.35 1056.96 162.45 1057.12 157.087 1060.21 153.35 1059.89 152.212 1059.72 151.075 1059.72 149.938 1059.72 144.738 1063.46 140.188 1068.66 139.212 1070.29 134.663 1074.51 131.575 1079.22 131.738 1080.04 131.738 1081.01 131.9 1081.82 132.062 1083.78 129.788 1086.54 128.488 1089.62 128.163 1092.71 128 1095.64 128.975 1097.91 131.087 1100.84 129.137 1104.41 128.65 1107.66 129.625 1111.07 130.6 1113.68 133.2 1114.81 136.45L1115.46 136.45C1121.64 136.45 1126.51 141.325 1126.68 147.5L1126.68 147.988C1130.41 150.1 1132.53 154.163 1132.2 158.387 1130.9 164.075 1125.86 168.462 1120.01 168.3ZM1154.62 185.362 1143.41 166.025 1143.41 165.375C1144.06 147.5 1134.96 130.762 1119.53 121.825 1104.09 112.725 1085.07 112.725 1069.64 121.825 1054.2 130.762 1045.1 147.5 1045.75 165.375 1045.75 180.65 1052.74 195.112 1064.93 204.375L1064.93 245 1116.28 245 1116.28 225.663 1124.24 225.663C1129.44 225.663 1134.31 223.712 1137.89 219.975 1141.46 216.4 1143.41 211.363 1143.41 206.325L1143.41 196.575 1150.56 196.575C1154.79 196.25 1158.53 191.375 1154.62 185.362Z" fill="#FFFFFF"/></g></svg>