<svg width="145" height="145" xmlns="http://www.w3.org/2000/svg" xmlns:xlink="http://www.w3.org/1999/xlink" xml:space="preserve" overflow="hidden"><g transform="translate(-816 -360)"><path d="M940.005 394.589 929.281 391.719 926.411 380.995 940.005 367.401C931.849 364.38 922.786 366.042 916.292 371.932 909.948 377.823 907.229 386.734 909.646 395.042L851.042 453.646C842.734 451.38 833.823 454.099 828.083 460.443 822.344 466.786 820.531 475.849 823.552 484.005L837.146 470.411 847.719 473.281 850.589 484.005 836.995 497.599C845.151 500.62 854.214 498.958 860.708 493.068 867.052 487.177 869.771 478.266 867.354 469.958L925.958 411.354C934.266 413.62 943.177 410.901 948.917 404.557 954.656 398.214 956.469 389.151 953.448 380.995L940.005 394.589Z" fill="#FFFFFF"/></g></svg>