<svg width="156" height="156" xmlns="http://www.w3.org/2000/svg" xmlns:xlink="http://www.w3.org/1999/xlink" xml:space="preserve" overflow="hidden"><g transform="translate(-1087 -533)"><path d="M1149.72 577.525C1149.72 582.91 1145.36 587.275 1139.97 587.275 1134.59 587.275 1130.22 582.91 1130.22 577.525 1130.22 572.14 1134.59 567.775 1139.97 567.775 1145.36 567.775 1149.72 572.14 1149.72 577.525Z" fill="#FFFFFF"/><path d="M1200.1 561.275C1200.1 566.66 1195.73 571.025 1190.35 571.025 1184.97 571.025 1180.6 566.66 1180.6 561.275 1180.6 555.89 1184.97 551.525 1190.35 551.525 1195.73 551.525 1200.1 555.89 1200.1 561.275Z" fill="#FFFFFF"/><path d="M1235.85 571.025C1233.9 569.075 1230.97 569.075 1229.03 571.025L1222.2 577.85 1212.45 570.7C1211.15 569.725 1209.53 569.4 1208.22 570.05L1185.47 576.55C1184.82 576.875 1183.85 577.2 1183.53 577.85L1175.07 586.3 1164.03 586.3C1161.43 586.3 1159.15 588.575 1159.15 591.175 1159.15 593.775 1161.43 596.05 1164.03 596.05L1177.03 596.05C1178.32 596.05 1179.62 595.4 1180.6 594.75L1189.38 585.975 1196.2 606.125 1180.93 616.2C1179.3 617.175 1178.65 619.125 1178.65 621.075L1181.9 643.825C1182.22 646.1 1184.18 648.05 1186.78 648.05 1187.1 648.05 1187.1 648.05 1187.43 648.05 1190.03 647.725 1191.97 645.125 1191.65 642.525L1188.72 622.7 1202.05 613.925 1198.47 621.725C1198.15 622.7 1197.82 623.35 1198.15 624.325L1201.4 647.075C1201.72 649.35 1203.68 651.3 1206.28 651.3 1206.6 651.3 1206.6 651.3 1206.93 651.3 1209.53 650.975 1211.47 648.375 1211.15 645.775L1208.22 624 1215.7 607.1C1215.7 607.1 1216.35 604.825 1216.35 603.85 1216.35 602.55 1215.7 600.6 1215.7 600.6L1210.5 581.1 1219.6 587.925C1221.55 589.225 1224.15 589.225 1226.1 587.6L1235.85 577.85C1237.8 575.9 1237.8 572.975 1235.85 571.025Z" fill="#FFFFFF"/><path d="M1170.2 604.825C1168.9 602.55 1165.97 601.575 1163.7 602.55L1154.6 607.1 1147.12 594.75C1146.47 593.775 1145.5 592.8 1144.2 592.475L1121.45 585.975C1119.82 585.65 1117.88 585.975 1116.57 587.275L1107.47 596.375 1100.97 587.925C1100 585.65 1096.75 585.325 1094.47 586.625 1092.53 588.25 1092.2 591.5 1093.5 593.45L1103.25 606.45C1104.22 607.425 1105.53 608.4 1106.82 608.4 1108.12 608.4 1109.75 608.075 1110.72 607.1L1120.15 597.675 1114.3 619.775C1113.97 620.75 1113.65 622.05 1113.65 623.025 1113.65 624.975 1114.3 626.925 1115.6 628.55L1124.7 643.175 1118.85 663.975C1118.2 666.575 1119.5 669.175 1122.1 670.15 1122.43 670.15 1123.07 670.475 1123.4 670.475 1125.68 670.475 1127.62 669.175 1127.95 666.9L1134.45 644.15C1134.78 642.85 1134.78 641.225 1133.8 640.25L1128.28 631.475 1141.28 639.275 1141.28 662.675C1141.28 665.275 1143.55 667.55 1146.15 667.55 1148.75 667.55 1151.03 665.275 1151.03 662.675L1151.03 636.675C1151.03 635.05 1150.05 633.425 1148.75 632.45L1134.78 624 1140.95 603.85 1148.43 616.2C1149.4 617.825 1151.03 618.475 1152.65 618.475 1153.3 618.475 1154.28 618.15 1154.93 617.825L1167.93 611.325C1170.53 610.025 1171.5 607.1 1170.2 604.825Z" fill="#FFFFFF"/></g></svg>