<svg width="145" height="145" xmlns="http://www.w3.org/2000/svg" xmlns:xlink="http://www.w3.org/1999/xlink" xml:space="preserve" overflow="hidden"><g transform="translate(-651 -360)"><path d="M767.559 434.599C775.067 434.599 781.153 428.513 781.153 421.006 781.153 413.498 775.067 407.412 767.559 407.412 760.051 407.412 753.965 413.498 753.965 421.006 753.967 421.689 754.022 422.371 754.131 423.045L738.408 429.615C735.588 424.639 730.658 421.215 725.01 420.311L725.01 403.424C732.33 401.756 736.912 394.47 735.243 387.15 733.575 379.83 726.289 375.248 718.969 376.917 711.649 378.585 707.067 385.872 708.736 393.191 709.897 398.286 713.875 402.263 718.969 403.424L718.969 420.296C713.374 421.201 708.483 424.572 705.647 429.479L690.346 423.09C691.493 415.671 686.409 408.726 678.989 407.579 671.57 406.432 664.625 411.517 663.478 418.936 662.331 426.356 667.416 433.3 674.835 434.447 679.965 435.24 685.098 433.043 688.066 428.784L703.502 435.098C702.407 440.385 703.64 445.887 706.885 450.202L694.394 462.814C688.005 458.872 679.63 460.855 675.687 467.244 671.745 473.633 673.728 482.009 680.117 485.951 686.506 489.894 694.882 487.91 698.824 481.521 701.58 477.056 701.519 471.403 698.669 466.998L711.25 454.416C717.712 458.905 726.282 458.905 732.744 454.416L745.326 466.983C741.243 473.284 743.042 481.701 749.343 485.783 755.643 489.865 764.061 488.067 768.143 481.766 772.225 475.465 770.426 467.048 764.125 462.966 759.689 460.091 753.988 460.05 749.509 462.859L737.094 450.278C739.585 447.016 740.934 443.024 740.93 438.919 740.925 437.687 740.803 436.458 740.568 435.249L756.442 428.754C758.971 432.4 763.121 434.582 767.559 434.599ZM767.559 412.683C769.669 412.683 771.38 414.394 771.38 416.505 771.38 418.615 769.669 420.326 767.559 420.326 765.448 420.326 763.737 418.615 763.737 416.505 763.737 416.5 763.737 416.495 763.737 416.49 763.754 414.388 765.458 412.691 767.559 412.683ZM760.007 425.069C760.022 424.475 760.305 423.919 760.777 423.558 761.906 422.752 763.162 422.14 764.493 421.746 765.514 421.449 766.571 421.292 767.634 421.278 768.699 421.279 769.757 421.437 770.776 421.746 772.121 422.102 773.383 422.717 774.492 423.558 774.955 423.925 775.231 424.478 775.247 425.069L775.247 427.969 759.931 427.969ZM677.009 412.683C679.12 412.683 680.831 414.394 680.831 416.505 680.831 418.615 679.12 420.326 677.009 420.326 674.899 420.326 673.188 418.615 673.188 416.505 673.188 416.5 673.188 416.495 673.188 416.49 673.204 414.417 674.862 412.732 676.934 412.683ZM684.561 427.984 669.306 427.984 669.306 425.069C669.321 424.475 669.604 423.919 670.077 423.558 671.206 422.752 672.462 422.14 673.792 421.746 674.814 421.449 675.87 421.292 676.934 421.278 677.998 421.279 679.057 421.437 680.076 421.746 681.421 422.102 682.683 422.717 683.791 423.558 684.254 423.925 684.531 424.478 684.546 425.069ZM687.25 466.061C689.352 466.061 691.056 467.766 691.056 469.868 691.056 471.97 689.352 473.674 687.25 473.674 685.148 473.674 683.444 471.97 683.444 469.868 683.444 467.766 685.148 466.061 687.25 466.061ZM694.802 481.347 679.698 481.347 679.698 478.432C679.711 477.841 679.988 477.287 680.453 476.921 681.582 476.117 682.838 475.509 684.169 475.124 685.17 474.824 686.206 474.656 687.25 474.626 688.315 474.63 689.374 474.793 690.392 475.109 691.736 475.458 692.999 476.069 694.107 476.906 694.572 477.272 694.849 477.826 694.862 478.417ZM721.99 381.856C724.092 381.856 725.796 383.56 725.796 385.662 725.796 387.764 724.092 389.468 721.99 389.468 719.893 389.468 718.192 387.773 718.183 385.677 718.175 383.575 719.872 381.864 721.974 381.856 721.979 381.856 721.985 381.856 721.99 381.856ZM714.438 397.141 714.438 394.226C714.451 393.635 714.728 393.081 715.193 392.716 716.321 391.911 717.577 391.304 718.908 390.918 719.909 390.618 720.945 390.45 721.99 390.42 723.055 390.425 724.114 390.588 725.131 390.903 726.476 391.252 727.738 391.863 728.847 392.701 729.312 393.066 729.589 393.62 729.602 394.211L729.602 397.126ZM721.99 427.349C724.918 427.341 727.298 429.708 727.306 432.636 727.315 435.564 724.948 437.944 722.02 437.953 719.092 437.961 716.711 435.594 716.703 432.666 716.703 432.661 716.703 432.656 716.703 432.651 716.703 429.729 719.068 427.358 721.99 427.349ZM732.562 448.601 711.417 448.601 711.417 444.583C711.437 443.756 711.824 442.981 712.474 442.469 714.041 441.343 715.788 440.49 717.64 439.946 719.053 439.53 720.516 439.301 721.99 439.267 723.468 439.271 724.939 439.49 726.355 439.916 728.228 440.403 729.985 441.26 731.52 442.439 732.172 442.961 732.555 443.748 732.562 444.583ZM756.729 466.061C758.831 466.061 760.535 467.766 760.535 469.868 760.535 471.97 758.831 473.674 756.729 473.674 754.627 473.674 752.923 471.97 752.923 469.868 752.923 467.766 754.627 466.061 756.729 466.061ZM749.177 478.432C749.191 477.841 749.468 477.287 749.932 476.921 751.061 476.117 752.317 475.509 753.648 475.124 754.649 474.824 755.685 474.656 756.729 474.626 757.794 474.63 758.853 474.793 759.871 475.109 761.215 475.458 762.478 476.069 763.586 476.906 764.051 477.272 764.328 477.826 764.342 478.417L764.342 481.332 749.177 481.332Z" fill="#FFFFFF"/></g></svg>