<svg width="156" height="155" xmlns="http://www.w3.org/2000/svg" xmlns:xlink="http://www.w3.org/1999/xlink" xml:space="preserve" overflow="hidden"><g transform="translate(-867 -536)"><path d="M69.7435 12.9167 68.0353 29.3741 77.9892 27.301 78.3783 23.5535 137.8 29.7229 129.798 106.808 103.995 104.129 106.068 114.085 138.431 117.445 148.437 21.0865 69.7435 12.9167Z" fill="#FFFFFF" transform="matrix(1.00645 0 0 1 867 536)"/><path d="M132.481 34.0403 88.4501 29.4678 89.4867 34.4455 127.165 38.3577 122.912 79.3099 117.057 78.7029 117.926 70.328C118.143 68.2686 117.544 66.2062 116.258 64.5833 119.632 61.782 120.096 56.7759 117.295 53.4017 115.196 50.8736 111.757 49.8995 108.644 50.9514 108.236 46.08 103.957 42.4614 99.0854 42.8691 96.1953 43.1108 93.6069 44.7533 92.1572 47.2653L95.2604 62.1615C95.4529 61.9014 95.6757 61.665 95.924 61.4575 97.6542 60.0517 100.196 60.3145 101.602 62.0447 102.278 62.8767 102.595 63.9435 102.484 65.0096L102.103 68.6763 102.103 68.6763 101.234 77.0592 98.2991 76.7541 99.334 81.7302 127.232 84.6365ZM103.818 52.1672C103.587 54.3845 101.602 55.9947 99.3849 55.7637 97.1676 55.5328 95.5573 53.5481 95.7882 51.3308 96.0022 49.2772 97.7312 47.7163 99.7958 47.7126 99.9371 47.7124 100.078 47.7193 100.219 47.7335 102.436 47.9631 104.048 49.947 103.818 52.1643 103.818 52.1653 103.818 52.1662 103.818 52.1672ZM113.114 69.8275 112.246 78.2023 106.051 77.5565 106.921 69.1784C107.099 67.4681 108.63 66.2262 110.341 66.4046 112.051 66.583 113.293 68.1139 113.114 69.8243ZM114.258 58.8144 114.258 58.8144C114.176 59.6367 113.769 60.3925 113.127 60.9134 111.792 61.9974 109.83 61.7935 108.746 60.4579 108.225 59.8153 107.981 58.9916 108.067 58.1686 108.233 56.5832 109.568 55.3783 111.162 55.3754 111.27 55.375 111.378 55.3809 111.485 55.3931 113.194 55.5693 114.436 57.097 114.26 58.8054 114.26 58.8068 114.259 58.8081 114.259 58.8096Z" fill="#FFFFFF" transform="matrix(1.00645 0 0 1 867 536)"/><path d="M26.1191 141.999 6.37437 47.1571 83.8292 31.0339 103.574 125.875ZM17.8347 54.6682 33.6285 130.541 92.1152 118.365 76.3197 42.4926Z" fill="#FFFFFF" transform="matrix(1.00645 0 0 1 867 536)"/><path d="M33.9272 108.214 23.5632 58.4221 72.5642 48.2211 82.9315 98.0133ZM29.2918 62.1776 37.6876 102.484 77.2013 94.2594 68.8055 53.9513Z" fill="#FFFFFF" transform="matrix(1.00645 0 0 1 867 536)"/><path d="M56.6234 94.2771 54.9523 93.4844C53.2619 92.6771 38.3867 85.3259 36.4734 76.2083 35.7244 71.9278 37.8805 67.6646 41.7725 65.7313 44.812 64.3374 48.386 64.8515 50.9094 67.0456 52.3374 64.0203 55.4033 62.1101 58.7482 62.1615 63.0897 62.3665 66.7785 65.4042 67.8125 69.6257 69.7258 78.7465 59.0566 91.4548 57.8328 92.8757ZM44.548 69.863C44.3022 69.9158 44.0634 69.9965 43.8359 70.1036 41.978 71.0848 40.9307 73.1221 41.2139 75.2041 42.2714 80.2416 50.769 85.7586 55.3608 88.245 58.6562 84.0326 64.1345 75.6933 63.0705 70.6186 62.4945 68.5983 60.7162 67.1542 58.6207 67.0052 55.913 66.9326 53.9481 69.7096 53.4443 71.5955L52.5079 74.6632 50.4089 72.2671C48.9834 70.5319 46.7814 69.6287 44.548 69.863Z" fill="#FFFFFF" transform="matrix(1.00645 0 0 1 867 536)"/></g></svg>