<svg width="156" height="156" xmlns="http://www.w3.org/2000/svg" xmlns:xlink="http://www.w3.org/1999/xlink" xml:space="preserve" overflow="hidden"><g transform="translate(-660 -530)"><path d="M738 556C709.237 556 686 579.237 686 608 686 636.763 709.237 660 738 660 766.763 660 790 636.763 790 608 790 579.237 766.763 556 738 556ZM738 669.75C703.875 669.75 676.25 642.125 676.25 608 676.25 573.875 703.875 546.25 738 546.25 772.125 546.25 799.75 573.875 799.75 608 799.75 642.125 772.125 669.75 738 669.75Z" fill="#FFFFFF"/><path d="M770.5 595 751 595 751 575.5C751 571.925 748.075 569 744.5 569L731.5 569C727.925 569 725 571.925 725 575.5L725 595 705.5 595C701.925 595 699 597.925 699 601.5L699 614.5C699 618.075 701.925 621 705.5 621L725 621 725 640.5C725 644.075 727.925 647 731.5 647L744.5 647C748.075 647 751 644.075 751 640.5L751 621 770.5 621C774.075 621 777 618.075 777 614.5L777 601.5C777 597.925 774.075 595 770.5 595Z" fill="#FFFFFF"/></g></svg>