<svg width="155" height="156" xmlns="http://www.w3.org/2000/svg" xmlns:xlink="http://www.w3.org/1999/xlink" xml:space="preserve" overflow="hidden"><g transform="translate(-641 -188)"><path d="M137.24 60.3854C134.495 53.7656 126.906 50.6979 120.286 53.4427 114.797 55.7031 111.568 61.5156 112.375 67.1667L91.5469 75.8854C89.2865 72.0104 85.25 69.1042 80.7292 68.2969L80.7292 45.8542C86.2188 44.401 90.4167 39.3958 90.4167 33.4219 90.4167 26.3177 84.6042 20.5052 77.5 20.5052L77.5 20.5052C70.3958 20.5052 64.5833 26.3177 64.5833 33.4219 64.5833 39.3958 68.7812 44.401 74.2708 45.8542L74.2708 68.1354C69.5885 68.9427 65.7135 71.849 63.4531 75.724L42.625 67.0052C43.4323 61.3542 40.3646 55.5417 34.7135 53.2812 28.0938 50.5365 20.5052 53.6042 17.7604 60.224 15.0156 66.8438 18.0833 74.4323 24.7031 77.1771 30.1927 79.4375 36.4896 77.6615 39.8802 72.9792L61.1927 81.6979C61.0312 82.3438 61.0312 83.151 61.0312 83.7969 61.0312 87.349 62.1615 90.7396 64.2604 93.4844L47.4688 110.438C42.4635 107.531 36.0052 108.177 31.8073 112.375 26.8021 117.38 26.8021 125.615 31.8073 130.62 36.8125 135.625 45.0469 135.625 50.0521 130.62 54.25 126.422 54.8958 119.964 51.9896 114.958L69.1042 97.8438C71.526 99.2969 74.2708 100.104 77.1771 100.104 77.3385 100.104 77.3385 100.104 77.5 100.104 77.6615 100.104 77.6615 100.104 77.8229 100.104 80.7292 100.104 83.474 99.2969 85.8958 97.8438L103.01 114.958C100.104 119.964 100.75 126.422 104.948 130.781 109.953 135.786 118.188 135.786 123.193 130.781 128.198 125.776 128.198 117.542 123.193 112.536 118.995 108.339 112.536 107.693 107.531 110.599L90.7396 93.6458C92.8385 90.901 93.9688 87.6719 93.9688 83.9583 93.9688 83.3125 93.9688 82.5052 93.8073 81.8594L115.12 73.1406C118.51 77.6615 124.807 79.599 130.297 77.3385 136.755 74.4323 139.984 67.0052 137.24 60.3854Z" fill="#FFFFFF" transform="matrix(1 0 0 1.00645 641 188)"/></g></svg>