<svg width="146" height="145" xmlns="http://www.w3.org/2000/svg" xmlns:xlink="http://www.w3.org/1999/xlink" xml:space="preserve" overflow="hidden"><g transform="translate(-1111 -360)"><path d="M118.639 34.4994C102.619 33.2233 87.6803 25.9135 76.8424 14.0469 74.7995 11.6791 71.2238 11.4157 68.856 13.4587 68.6457 13.64 68.4492 13.8367 68.2678 14.0469 57.43 25.9135 42.4916 33.2233 26.4716 34.4994 23.4947 34.7784 21.226 37.2884 21.2485 40.2783L21.2485 54.8583C21.2485 86.5559 41.4081 115.551 69.3991 133.494 71.3217 134.729 73.7885 134.729 75.7111 133.494 103.702 115.547 123.862 86.5559 123.862 54.8583L123.862 40.2783C123.884 37.2884 121.616 34.7784 118.639 34.4994ZM114.044 54.8583C114.044 80.0823 99.0169 105.528 73.8458 122.942L72.5559 123.835 71.2675 122.942C46.0949 105.527 31.0647 80.0747 31.0647 54.8583L31.0647 43.9063 32.9739 43.6042C47.1977 41.3551 60.4366 34.9429 71.0198 25.1771L72.5544 23.7634 74.0905 25.1771C84.6732 34.9429 97.9116 41.3551 112.135 43.6042L114.044 43.9063Z" fill="#FFFFFF" transform="matrix(1.0069 0 0 1 1111 360)"/><path d="M72.5544 29.8881C62.0674 39.0598 49.2986 45.23 35.596 47.7473L35.596 54.8583C35.596 78.1595 49.3816 101.776 72.5559 118.311 95.7272 101.779 109.513 78.161 109.513 54.8583L109.513 47.7473C95.8101 45.23 83.0413 39.0598 72.5544 29.8881ZM68.6756 88.8623 53.4023 73.5875 58.5921 68.3977 68.6756 78.4812 89.326 57.8308 94.5158 63.0221Z" fill="#FFFFFF" transform="matrix(1.0069 0 0 1 1111 360)"/></g></svg>